<svg xmlns="http://www.w3.org/2000/svg" version="1.1" xmlns:xlink="http://www.w3.org/1999/xlink" width="1000" height="1000"><g clip-path="url(#SvgjsClipPath1110)"><rect width="1000" height="1000" fill="#ffffff"></rect><g transform="matrix(29.166666666666668,0,0,29.166666666666668,150,150)"><svg xmlns="http://www.w3.org/2000/svg" version="1.1" xmlns:xlink="http://www.w3.org/1999/xlink" width="24" height="24"><svg width="24" height="24" viewBox="0 0 6.35 6.3499999" version="1.1" xmlns="http://www.w3.org/2000/svg" fill="#000000" stroke="#000000" stroke-width=".5px">
    <g transform="translate(-70.173773,-83.433882)">
      <path d="m 70.59079,84.691171 q 0,-0.120923 0.08682,-0.207739 0.08682,-0.08682 0.207739,-0.08682 0.124024,0 0.20774,0.08682 0.08682,0.08682 0.08682,0.207739 v 2.604492 q 0,0.387574 0.275952,0.663526 0.272852,0.272851 0.660425,0.272851 0.387573,0 0.663525,-0.272851 0.272852,-0.272852 0.272852,-0.660425 v -2.607593 q 0,-0.120923 0.08682,-0.207739 0.08682,-0.08682 0.20774,-0.08682 0.124023,0 0.210839,0.08682 0.08682,0.08682 0.08682,0.207739 v 2.607593 q 0,0.387573 0.272851,0.660425 0.272852,0.272851 0.663526,0.272851 0.387573,0 0.660425,-0.272851 0.275952,-0.275952 0.275952,-0.663526 v -2.604492 q 0,-0.120923 0.08682,-0.207739 0.08372,-0.08372 0.207739,-0.08372 0.120923,0 0.20774,0.08372 0.08682,0.08682 0.08682,0.207739 v 2.604492 q 0,0.63252 -0.446484,1.079004 -0.449585,0.446485 -1.079004,0.446485 -0.63252,0 -1.079004,-0.446485 -0.08372,-0.08062 -0.155029,-0.176733 -0.06821,0.09612 -0.151929,0.176733 -0.446484,0.446485 -1.079004,0.446485 -0.632519,0 -1.079004,-0.446485 -0.446484,-0.446484 -0.446484,-1.079004 z"></path>
    </g>
</svg></svg></g></g><defs><clipPath id="SvgjsClipPath1110"><rect width="1000" height="1000" x="0" y="0" rx="250" ry="250"></rect></clipPath></defs></svg>